<svg xmlns="http://www.w3.org/2000/svg" viewBox="0 0 17.86 187.85"><defs><style>.cls-1{fill:blue;}</style></defs><title>communication_1</title><g id="Camada_2" data-name="Camada 2"><g id="Camada_1-2" data-name="Camada 1"><path class="cls-1" d="M9,187.85c-5.18,0-8.95-2.95-8.95-7.8,0-3.63,2-6,5.21-6.6V175a4.76,4.76,0,0,0-3.82,5c0,4,3.34,6.1,7.56,6.1s7.47-2.14,7.47-6.08c0-3.31-2.31-5.11-5.14-5.37v-1.56a7.41,7.41,0,0,1,4.49,1.77,6.74,6.74,0,0,1,2.06,5.19C17.83,184.9,14.21,187.85,9,187.85Z"/><path class="cls-1" d="M8.93,171.6c-5.11,0-8.93-3.12-8.93-8s3.82-8,8.93-8,8.93,3.15,8.93,8S14,171.6,8.93,171.6Zm0-14.31c-4.15,0-7.49,2.21-7.49,6.34s3.34,6.29,7.49,6.29,7.49-2.18,7.49-6.29S13.08,157.29,8.93,157.29Z"/><path class="cls-1" d="M.36,153.22V151l15-5.93v0l-15-5.79V137H17.52v1.56H2.57v.05s1.37.46,2.33.82l12.62,5v1.41l-12.62,5c-.89.36-2.33.84-2.33.84v0h15v1.49Z"/><path class="cls-1" d="M.36,133.94v-2.18l15-5.93v0L.36,120v-2.26H17.52v1.56H2.57v0s1.37.46,2.33.82l12.62,5v1.41l-12.62,5c-.89.36-2.33.84-2.33.84v.05h15v1.48Z"/><path class="cls-1" d="M12.07,114.86H.36v-1.6H11.93c3.17,0,4.46-1.71,4.46-4.71,0-2.85-1.29-4.68-4.46-4.68H.36v-1.61H12.07c4,0,5.72,2.64,5.72,6.36S16,114.86,12.07,114.86Z"/><path class="cls-1" d="M.36,99.41V97.66l12.05-7.9c1.3-.86,2.83-1.7,2.83-1.7v0H.36V86.47H17.52v1.68L5.62,96c-1.2.8-2.91,1.8-2.91,1.8v.05H17.52v1.54Z"/><path class="cls-1" d="M.36,83.33V81.72H17.52v1.61Z"/><path class="cls-1" d="M9,79.22c-5.18,0-8.95-3-8.95-7.8,0-3.62,2-6,5.21-6.6v1.59a4.75,4.75,0,0,0-3.82,5c0,4,3.34,6.09,7.56,6.09s7.47-2.13,7.47-6.07c0-3.31-2.31-5.11-5.14-5.37V64.54a7.41,7.41,0,0,1,4.49,1.77,6.74,6.74,0,0,1,2.06,5.19C17.83,76.27,14.21,79.22,9,79.22Z"/><path class="cls-1" d="M.36,57.65V55.82L17.52,49.3V51l-5.4,2v7.46l5.4,2v1.63ZM10.8,53.5,4.39,55.85c-1,.36-2.49.86-2.49.86v0s1.46.46,2.49.84L10.8,60Z"/><path class="cls-1" d="M1.8,44.88v5.81H.36V37.49H1.8v5.78H17.52v1.61Z"/><path class="cls-1" d="M.36,35.42v-1.6H17.52v1.6Z"/><path class="cls-1" d="M8.93,31.32c-5.11,0-8.93-3.12-8.93-8s3.82-8,8.93-8,8.93,3.14,8.93,8S14,31.32,8.93,31.32Zm0-14.3c-4.15,0-7.49,2.2-7.49,6.33s3.34,6.29,7.49,6.29,7.49-2.18,7.49-6.29S13.08,17,8.93,17Z"/><path class="cls-1" d="M.36,12.94V11.19l12.05-7.9c1.3-.87,2.83-1.71,2.83-1.71v0H.36V0H17.52V1.68L5.62,9.55c-1.2.79-2.91,1.8-2.91,1.8v.05H17.52v1.54Z"/></g></g></svg>