<svg xmlns="http://www.w3.org/2000/svg" viewBox="0 0 17.83 79.44"><defs><style>.cls-1{fill:blue;}</style></defs><title>design_1</title><g id="Camada_2" data-name="Camada 2"><g id="Camada_1-2" data-name="Camada 1"><path class="cls-1" d="M.34,79.44v-6.1C.34,68.28,3.89,66,9,66s8.52,2.45,8.52,7.51v5.93Zm15.74-5.88c0-4.1-2.76-5.88-7.1-5.88s-7.23,1.61-7.23,5.71v4.44H16.08Z"/><path class="cls-1" d="M.34,63.6V51.94H1.75V62H7.92V52.78H9.31V62H16V51.67H17.5V63.6Z"/><path class="cls-1" d="M11.93,50.47V48.86c2.9-.16,4.54-2.13,4.54-5.35,0-2.52-1.28-4.39-3.6-4.39s-3,1.61-3.75,5.28c-.62,3.17-1.58,5.4-4.58,5.4C1.8,49.8,0,47.5,0,44.06c0-3.81,2.06-5.73,5-6v1.56c-2.43.28-3.68,2-3.68,4.46,0,2.62,1.25,4.2,3.15,4.2s2.66-1.58,3.24-4.66c.65-3.33,1.46-6.09,5.06-6.09,3.05,0,5,2.45,5,6C17.81,48.05,15.27,50.28,11.93,50.47Z"/><path class="cls-1" d="M.34,35V33.43H17.5V35Z"/><path class="cls-1" d="M8.93,30.94C3.86,30.94,0,28,0,22.82c0-3.52,1.82-6.14,5.3-6.76v1.65a4.8,4.8,0,0,0-3.91,5.11c0,4.42,3.39,6.44,7.54,6.44s7.49-2.14,7.49-6.22-2.74-5.66-5.71-5.66H10.1V22.9H8.69V15.79H17.5v1.13l-2.74.33v.08a6.43,6.43,0,0,1,3.07,5.73C17.83,28.08,14.07,30.94,8.93,30.94Z"/><path class="cls-1" d="M.34,12.94V11.19l12.05-7.9c1.29-.87,2.83-1.71,2.83-1.71v0H.34V0H17.5V1.68L5.59,9.55c-1.2.79-2.9,1.8-2.9,1.8v.05H17.5v1.54Z"/></g></g></svg>