<svg xmlns="http://www.w3.org/2000/svg" viewBox="0 0 53.43 203.55"><defs><style>.cls-1{fill:blue;}</style></defs><title>serra_1</title><g id="Camada_2" data-name="Camada 2"><g id="Camada_1-2" data-name="Camada 1"><path class="cls-1" d="M35.79,203.55v-4.83c8.71-.5,13.61-6.41,13.61-16.06,0-7.56-3.82-13.17-10.8-13.17-7.28,0-9,4.82-11.24,15.84-1.87,9.5-4.75,16.2-13.75,16.2C5.4,201.53,0,194.62,0,184.32c0-11.45,6.19-17.21,15.05-18.14v4.68c-7.27.86-11,6-11,13.39,0,7.85,3.75,12.6,9.44,12.6,6.12,0,8-4.75,9.72-14,1.94-10,4.39-18.29,15.19-18.29,9.14,0,15,7.35,15,18.15C53.43,196.27,45.8,203,35.79,203.55Z"/><path class="cls-1" d="M1,162.51v-35H5.26v30.17h18.5V130h4.18v27.65H48v-31h4.46v35.79Z"/><path class="cls-1" d="M1,124.49v-23C1,92.23,6.34,86.9,14.91,86.9c6.33,0,10.51,2.74,12.38,8.64h.22c1.8-5.32,5.68-7.05,13.68-7.41,8.28-.36,10.37-1.3,11-2.23h.29v5.18C51.7,92.23,49.76,92.52,41,93s-11.45,3.53-11.45,11v15.7h23v4.82Zm24.41-21.31c0-7.49-3.67-11.31-10.08-11.31S5.26,94.75,5.26,102.53v17.14H25.42Z"/><path class="cls-1" d="M1,84.1v-23c0-9.29,5.33-14.62,13.9-14.62,6.33,0,10.51,2.74,12.38,8.64h.22c1.8-5.33,5.68-7,13.68-7.41,8.28-.36,10.37-1.3,11-2.24h.29v5.19c-.79,1.15-2.73,1.44-11.52,1.87s-11.45,3.53-11.45,11V79.27h23V84.1ZM25.42,62.79c0-7.49-3.67-11.31-10.08-11.31S5.26,54.36,5.26,62.14V79.27H25.42Z"/><path class="cls-1" d="M1,25.06V19.59L52.49,0V5.18l-16.2,6V33.55l16.2,6.05v4.9ZM32.33,12.6,13.11,19.66c-2.88,1.08-7.49,2.59-7.49,2.59v.14s4.39,1.37,7.49,2.52l19.22,7.2Z"/></g></g></svg>