<svg xmlns="http://www.w3.org/2000/svg" viewBox="0 0 998.27 542.01"><defs><style>.cls-1{fill:#fff;}.cls-2{stroke:#fff;stroke-miterlimit:10;stroke-width:4.34px;}</style></defs><title>jurnal3</title><g id="Camada_2" data-name="Camada 2"><g id="Camada_1-2" data-name="Camada 1"><path class="cls-1" d="M248.41,269.8c-35.62,0-62.22-5.66-81.33-17.31-24.45-14.91-36.84-40-36.84-74.53V157.64h77.64v22.1c0,21.7,12.67,35.19,33.06,35.19,30.95,0,36.62-15.81,36.62-46.94V0H355.2V159.45c0,19.42,0,48.77-14.26,71.71C324.78,257.16,294.51,269.8,248.41,269.8ZM138.84,166.25V178c0,31.78,10.71,53.75,32.72,67.18,17.72,10.8,42.86,16.05,76.85,16.05,98.18,0,98.18-61.22,98.18-101.74V8.61H286.16V168c0,26.88-3.49,55.55-45.22,55.55-25.31,0-41.67-17.19-41.67-43.8V166.25Z"/><path class="cls-1" d="M529.88,269.8c-57.15,0-97.1-13.46-118.76-40-19-23.27-19-50.76-19-62.5V0h77.64V150.2c0,23.41,0,62.59,60.1,62.59S590,173.61,590,150.2V0h77.65V167.28c0,11.74,0,39.23-19,62.5C627,256.34,587,269.8,529.88,269.8ZM400.75,8.61V167.28c0,10.82,0,36.16,17,57.06,19.94,24.45,57.66,36.85,112.09,36.85S622,248.79,642,224.34c17-20.9,17-46.24,17-57.06V8.61H598.59V150.2c0,23.11,0,71.2-68.71,71.2s-68.71-48.09-68.71-71.2V8.61Z"/><path class="cls-1" d="M992.5,262.68h-88l-1.22-2.24c-7-12.85-7.29-24.17-7.29-50.81,0-35.31-15.55-40.18-32.35-40.18H782.21v93.23H704.56V0h189c78.08,0,86.51,51.29,86.51,73.34,0,29.28-11.18,49.32-34.09,61,18.17,8.73,27.68,32.25,27.68,68.92,0,25.11,4.37,44.13,12,52.2Zm-82.8-8.61h64.53c-7.46-13.73-9.19-34.51-9.19-50.85,0-26.89-5.41-59.76-31.22-63.71l-3.65-.56v-7.44l2.85-1c26.58-9.51,38.43-27.14,38.43-57.15,0-24.18-10.12-64.73-77.9-64.73H713.17V254.07H773.6V160.84h90.06c27.94,0,41,15.5,41,48.79C904.62,234,904.88,244,909.7,254.07Zm-40.35-133H773.6V48.4h92.2c25.64,0,41,13.44,41,36C906.75,109.71,888,121.06,869.35,121.06Zm-87.14-8.61h87.14c4.81,0,28.79-1.36,28.79-28.08C898.14,61.75,880.55,57,865.8,57H782.21Z"/><path d="M281.86,4.3h69V159.45c0,43.77-2.14,106-102.49,106-59.07,0-113.87-15.3-113.87-87.54v-16h69v17.79c0,23.85,14.23,39.5,37.36,39.5,35.94,0,40.92-21.35,40.92-51.24Z"/><path d="M396.44,4.3h69V150.2c0,24.91,1.06,66.9,64.41,66.9s64.4-42,64.4-66.9V4.3h69v163c0,28.47-3.56,98.21-133.44,98.21s-133.45-69.74-133.45-98.21Z"/><path d="M708.87,4.3H893.56c70.46,0,82.2,43.06,82.2,69,0,31-12.46,50.89-41.28,61.21v.71c30.25,4.63,34.87,43.06,34.87,68,0,12.45,1.07,42.35,13.17,55.16H907.08c-6.41-11.75-6.76-22.07-6.76-48.75,0-35.59-15.3-44.49-36.66-44.49H777.9v93.24h-69Zm69,112.45h91.46c15.3,0,33.09-8.54,33.09-32.38,0-25.27-19.93-31.68-36.65-31.68H777.9Z"/><path class="cls-1" d="M77.64,531.73H0v-69.1H77.64Zm-69-8.6H69V471.24H8.61Z"/><path class="cls-1" d="M414.27,531.73H332.78L200.05,361.81V531.73H124.54V269.05h86.52l127.7,169.59V269.05h75.51ZM337,523.13h68.68V277.66H347.37V454.87h-7.16L206.77,277.66H133.15V523.13h58.29V345.92h7.12Z"/><path class="cls-1" d="M742.51,531.73h-83.9L638,479.43H527.12l-20.64,52.3h-83.9L538.1,269.05H627Zm-78-8.6h64.85l-108-245.47H543.72l-108,245.47h64.85l20.64-52.31H643.84Zm-35.73-90H536.36l46.19-116.71ZM549,424.56h67l-33.52-84.7Z"/><path class="cls-1" d="M983.26,531.73H750.83V269.05h77.64V472.6H983.26Zm-223.82-8.6H974.65V481.21H819.86V277.66H759.44Z"/><path d="M4.31,466.94h69v60.49h-69Z"/><path d="M343.07,273.35H410V527.43H334.89L196.46,350.22h-.71V527.43h-66.9V273.35h80.07L342.36,450.57h.71Z"/><path d="M640.91,475.12H524.19l-20.64,52.31H429.18L540.92,273.35h83.27L735.92,527.43H661.55Zm-58.36-147L542.7,428.86h79.71Z"/><path d="M755.13,273.35h69V476.9H979v50.53H755.13Z"/><path class="cls-2" d="M334.66,191.15q-6.87,4.74-36.06,22.33a163.36,163.36,0,0,0-31.39,25.06,178.78,178.78,0,0,0-25.76,33q-16.37,26.91-26.91,39.22Q194,335,176.2,335a19.92,19.92,0,0,1-12.84-4.22,14,14,0,0,1-5.8-11.79q0-12.3,15.82-32.18a206.26,206.26,0,0,1,25.86-26.73,286.56,286.56,0,0,1,58.91-38.87q50.66-81.78,50.65-121.35,0-22.34-21.1-30.08-7.21-2.62-27.08-2.63-70.18,0-96.56,13.89Q145.94,90.54,146,107.43q0,4.39-2.64,4.4-1.41,0-2.46-4a121.62,121.62,0,0,1-.71-14.59,67.86,67.86,0,0,1,7-30.78q7.92-16.19,22.16-21.63,18.1-7,64-7,60,0,84.94,8.09,17.42,5.64,17.41,19.7,0,25-19.87,71.93-7.92,18.82-29.55,60.5l-10.37,20Q314.08,196.78,334.66,191.15Z"/><path class="cls-2" d="M365.17,96.53q30.6,0,90.39-70.18c1.29-1.87,2.47-2.87,3.52-3q3.17,0,5.1,10.55a66.6,66.6,0,0,1,1.59,13q0,26.75-21.46,48-9.68,9.68-29.2,19a33.83,33.83,0,0,0-14.42,12.31q-20.4,31.13-20.4,47.84,0,21.27,19.35,31.48,14.94,7.91,38.34,7.91,51.87,0,92.68-27.79,16.53-11.25,36.58-32.88,22-23.92,28-39.75a54.08,54.08,0,0,0,1.58-13.1,35.22,35.22,0,0,1,2.29-12.75q2.28-6,18.11-13,7.74-3.33,10.55-3.34c1.88,0,3.23,1.12,4,3.34s1.4,6.69,1.76,13.37l3.51,70.17q.18,5.81.53,15.48.52,6.85,3.87,18.46,4.92,9,13.37,9,6.85,0,21.63-9,5.28-3.16,12.84-8.26l1.23,1.76q-50.84,47.13-69.47,47.13-12,0-16.88-17.06-3.87-13.37-3.87-32.71,0-9.33-1.23-28.05t-1.24-28q-16.35,25.84-57.86,66.3a205.33,205.33,0,0,1-68.23,44.14q-29.21,11.44-57,11.43-31.65,0-46.95-16a35.41,35.41,0,0,1-10.38-25.5q0-13.55,11.34-38.61a348.63,348.63,0,0,1,29.81-52.14l-6.33.35Q375.38,117.29,365.17,96.53Z"/><path class="cls-2" d="M704.32,117.28l-5.63.53q-8.62,0-17.94-10.91-11.61-13.53-11.61-19.34,0-4.05,4.58-4c1,0,3.69.71,7.91,2.11l6.16.71q10,0,35-19Q743.54,51.41,769,23.37a34.1,34.1,0,0,1,4.22,16.19q0,29.92-27.26,56.69-3.69,3.51-25,21a128.44,128.44,0,0,0-23.56,25.88q-3.87,5.63-11.61,16.72l-11.43,15.49q-14.77,20.6-14.77,24.12c0,1.29.7,1.94,2.11,1.94.93,0,3.34-1.17,7.21-3.52q17.24-10.38,25.85-16.88l54.87-41.51q65.77-49.77,109.22-75.1,32.88-19.17,54-28.31,18.29-7.92,31.66-7.92,11.6,0,18.81,8.27a29.45,29.45,0,0,1,7.22,20q0,15.48-9,31.13-17.94,31.31-61.38,48.54-35.88,14.25-55,13.54L829,149.11q-4.05-.17-4,2.29-.16,3.69,21.72,30.95t38.26,40.1q25.14,20.06,50.47,20.05,19.53,0,33.15-12.05t13.63-31.21a119,119,0,0,0-1.76-13l-.7-4.22c0-1.64.88-2.58,2.64-2.81q6.15,0,6.15,21.45,0,21.29-15.3,37.64Q953,259.91,913.78,259.91q-47.67,0-82.66-32.36-14.6-13.37-23-24.62t-20.93-33.06a18.63,18.63,0,0,1-2.46-6.16q0-3.17,5.8-6.33l18.29-10.2q8.44-4.76,13.55-4.75l6.86,1H836q37.82,2,67.54-17,26.73-16.89,26.73-42.21,0-12.31-7-20.4t-19.17-8.09A59.61,59.61,0,0,0,880.19,61q-12.13,5.28-37.11,21.46a475,475,0,0,0-54.7,41.85q-19.7,17.41-27.61,25.86l-45.72,49.24A383.85,383.85,0,0,1,669,242q-13.37,10.38-22.87,10.38a14.51,14.51,0,0,1-10-3.78,12.33,12.33,0,0,1-4.22-9.59q0-8.08,11.43-26.91,7.56-12.66,25.15-38.34l33.94-50.12q2.11-3.17,2.11-4.75Z"/><path class="cls-1" d="M37,517.21c-4.78,0-9.55-2.92-14.56-8.94-3.66-4.42-5.22-7.45-5.22-10.14,0-2.5,1.51-5.22,9.77-13.13l7.8-7.44c2.43-2.25,4.42-3.25,6.43-3.25,3.92,0,7,3.82,9.41,7.57,3.33,5.15,6.55,8.84,9.59,11l.4.31a8.17,8.17,0,0,1,3,6.2c0,3.7-3.27,7-11.66,11.83C42.69,516.53,39.1,517.21,37,517.21Zm-10.94-18.7a23.85,23.85,0,0,0,3,4.26c4.39,5.26,7,5.83,7.94,5.83.23,0,2.49-.17,10.7-4.88a41.4,41.4,0,0,0,6.69-4.48c-3.7-2.81-7.3-7-11-12.67a25.5,25.5,0,0,0-2.32-3.1l-.44.39L33,491.22A63.68,63.68,0,0,0,26.07,498.51Z"/><path class="cls-1" d="M115.45,539.89c-17.33,0-26.11-5-26.11-14.85,0-4.63,2.45-11,7.71-19.94,4.78-8.15,15.76-24.69,32.62-49.16,19.14-27.84,33.19-50.41,41.75-67.06,4.35-8.49,6.56-16.47,6.56-23.71a11.24,11.24,0,0,0-2.91-8c-3.63-3.92-9-5.83-16.53-5.83-6.25,0-14,1.31-23.1,3.88l-8.66,2.46,10.56-24.81c6.23-14.58,15.08-22,26.3-22,8.94,0,18,3.16,27.06,9.38,11.63,8.1,17.52,19.11,17.52,32.74,0,10.08-7.13,28.07-21.81,55q-6.53,12-12.93,23c15-16.74,26.36-28.84,34-36.13C247.33,356.63,279.09,338,304.51,338c14.77,0,25.54,7,32,20.76,2.49,5.34,4.61,12.42,6.31,21.05.61,3.28,1.87,11.69,3.74,25,.81,5.32,2,13.27,3.51,24.26.78,6.33,1.56,12.58,2.33,18.84l1.19,9.66c2.62,16.53,5.31,22.87,7.11,25.29,1,1.41,2.81,3.19,7.45,3.19,3.23,0,7.44-1.42,12.52-4.21l26.44-14.53L399,481a104.29,104.29,0,0,1-16.33,20.91q-3,2.85-9.57,8.31c-16.3,13.7-28.89,20.35-38.46,20.35-8,0-14.24-3.24-18.06-9.38a36,36,0,0,1-4.59-10.94l-.09-.5-3.7-29L306,461.67l-5.81-58.08c-1.44-15-2.1-19.89-2.4-21.39-1.68-8.16-4.25-13.95-7.66-17.2a10.86,10.86,0,0,0-7.29-3.08c-14.1,0-47.22,25-125,144.36-7.71,11.82-12.94,19.1-16,22.27C134.4,536.1,125.5,539.89,115.45,539.89Zm43.09-197.14c9.88,0,17.57,2.89,22.85,8.59a19.76,19.76,0,0,1,5.2,13.83c0,8.62-2.53,17.92-7.51,27.64-8.73,17-23,39.86-42.32,68-16.75,24.31-27.61,40.67-32.28,48.63C98.79,519.15,98,523.38,98,525c0,5.43,11,6.25,17.5,6.25,7.8,0,14.45-2.87,20.35-8.77,1.74-1.81,5.8-7,14.91-20.94,31.74-48.72,58.71-85.8,80.17-110.23,11.22-12.77,21.08-22.26,29.69-28.57q-21.3,13.56-47.16,38.39c-11.46,11-31.78,33.26-60.41,66.19l-1.29,1.48H140.05l4.33-6.65c11-16.92,22.61-36.52,34.47-58.28,17.16-31.47,20.76-45,20.76-50.87,0-10.8-4.52-19.19-13.81-25.67-7.54-5.2-15-7.84-22.16-7.84-7.56,0-13.57,5.48-18.38,16.73l-3.64,8.56A81.32,81.32,0,0,1,158.54,342.75ZM320.36,508.41a27.06,27.06,0,0,0,3.41,8.12l.06.09c2.25,3.65,5.67,5.34,10.76,5.34s14.88-3.18,32.93-18.33c4.23-3.55,7.3-6.21,9.15-7.94q2-2,3.95-4.14a30.53,30.53,0,0,1-12.44,3.15c-7.94,0-12.22-3.66-14.41-6.73-3.5-4.71-6.27-14-8.66-29.09l0-.15L343.88,449l-2.31-18.76c-1.54-10.88-2.69-18.81-3.5-24.15-1.86-13.26-3.1-21.54-3.67-24.66a86.3,86.3,0,0,0-5.65-19c-5-10.63-12.94-15.8-24.24-15.8q-13.41,0-30.43,8.46a25,25,0,0,1,8.8-1.77,19.35,19.35,0,0,1,13.06,5.3l.09.09c4.81,4.53,8.16,11.66,10.24,21.79.32,1.62.93,5.66,2.53,22.26l5.8,58,2.1,19Z"/><path class="cls-1" d="M362,532.69c-9.78,0-15.39-5.16-15.39-14.16,0-6.2,4-12.52,12.1-19.31L372.22,488,400,465.08l32.44-27.44c-8.65-4.49-12.73-9.1-12.73-14.25,0-3,1.76-6,5.72-9.79L437.8,402c4.26-3.9,5.61-4.67,7-4.95l.94-.19.94.23a22.4,22.4,0,0,1,5.29,2.37,112.32,112.32,0,0,0,15.8,7.15l3.59-3c20.12-16.85,38.46-31.57,54.51-43.75l.64-.44c9.85-7.38,23.9-17.16,41.78-29.08,28.43-18.84,47.39-28,58-28,10.81,0,19.37,5.74,25.43,17.05,6.61,12.48,13.08,36.54,19.79,73.55l0,.13c2.22,14.86,4.4,29.84,6.49,44.54,4.28,19.61,10.52,30.4,17.57,30.4,1.18,0,5.25-.64,17.45-6.59l13-6.34a10.73,10.73,0,0,1,4.7-1.49,5.58,5.58,0,0,1,5.67,4.91l0,.63c0,2.36,0,3.55-18.37,19.44-25.66,22.24-44.48,33.05-57.51,33.05-9.5,0-16.81-4.87-21.14-14.08-2.18-4.64-4.08-12.27-5.8-23.33-.88-5.47-2.78-22.56-5.77-52l-6.33,4.41c-25,17.44-60.4,26.28-105.18,26.28a251.71,251.71,0,0,1-59.6-7.34c-2.12,2.81-5.55,7.15-10.39,13.13l-25.5,31.48C397.64,518.76,378.37,532.69,362,532.69Zm66.41-109.18c.15.66,1.54,4,13.69,9.1l6.48,2.72-43,36.37-27.83,22.9-13.53,11.24c-7.44,6.2-9,10.33-9,12.69,0,2.93.52,5.55,6.78,5.55,13.46,0,31-13.25,52.23-39.39l25.5-31.48c6.34-7.83,10.29-12.89,11.76-15l1.7-2.48,2.91.74a244,244,0,0,0,60.31,7.78c34.53,0,63.09-5.37,85.19-16-3.71.22-6.67.33-8.86.33-45.37,0-82.85-3.29-111.4-9.78L473.5,417l5.77-5.53c13.79-13.23,28.23-26,43.06-38.08-13.74,10.66-29,23-45.4,36.75l-7.28,6.1-2.27-.74a116.9,116.9,0,0,1-19.55-8.58c-.67-.38-1.22-.67-1.65-.88-.57.47-1.38,1.17-2.53,2.21l-12.26,11.56C429.12,422,428.51,423.16,428.37,423.51ZM596,330.27c8.05,0,15.29,3.56,21.51,10.59,8.21,9.36,13.67,28.56,16.72,58.7,4.19,42.17,6.84,66.81,7.88,73.27,1.57,10.11,3.29,17.17,5.09,21,2.93,6.24,7.17,9.14,13.35,9.14,7.37,0,22.35-5.37,51.87-31l2.09-1.82c-12,5.7-16.57,6.38-19,6.38-12.05,0-20.55-12.21-26-37.33l-.05-.31c-2.09-14.71-4.28-29.71-6.5-44.57-6.45-35.59-12.81-59.47-18.9-71-4.5-8.39-10.33-12.48-17.83-12.48-6,0-20.07,4.61-53.19,26.55l-2,1.34C581.51,333.08,589.78,330.27,596,330.27ZM728.31,457.32ZM491.17,412.07C518,417.31,552.1,420,592.7,420c2.84,0,7.17-.2,12.89-.6h0c6.07-.43,10.48-.63,13.49-.63h8.46q-.87-8.5-1.84-18.31c-2.82-27.9-7.74-46-14.61-53.87-4.56-5.16-9.49-7.67-15.05-7.67-7.11,0-22.79,5.61-57.15,32.33C522.48,384,506.45,397.75,491.17,412.07Z"/><path d="M41.23,478.61c1.41,0,3.34,1.87,5.81,5.62q5.45,8.44,10.72,12.14a4,4,0,0,1,1.59,3q0,2.64-9.5,8.09T37,512.9q-5.1,0-11.25-7.39c-2.82-3.39-4.22-5.86-4.22-7.38q0-1.94,8.44-10l7.74-7.38C39.24,479.31,40.41,478.61,41.23,478.61Z"/><path d="M134.27,351.1l7-16.53q8.26-19.35,22.34-19.35,12.13,0,24.62,8.62,15.65,10.91,15.65,29.19,0,13.91-21.28,52.94Q164.69,438.86,148,464.54h1.75q43.27-49.77,60.68-66.48,58-55.76,94.09-55.75,19.53,0,28.14,18.29,3.51,7.56,6,20,.89,4.74,3.69,24.79,1.23,8.1,3.52,24.27,1.76,14.25,3.52,28.5,3.33,21.1,7.91,27.26,3.53,4.92,10.91,4.92,6,0,14.59-4.75l12.49-6.86a99.29,99.29,0,0,1-15.65,20.05q-2.82,2.64-9.32,8.09-23,19.35-35.71,19.35-9.84,0-14.42-7.39a31.57,31.57,0,0,1-4-9.67l-3.69-29-2.12-19-5.8-58q-1.75-18.29-2.46-21.81-2.82-13.73-9-19.52a15.1,15.1,0,0,0-10.2-4.22q-33.24,0-128.56,146.32-11.26,17.23-15.48,21.63-10,10-23.39,10-21.81,0-21.81-10.55,0-5.62,7.12-17.77t32.45-48.89q29-42.21,42-67.53,7-13.73,7-25.68a15.51,15.51,0,0,0-4-10.9q-6.69-7.22-19.7-7.21Q148.51,347.06,134.27,351.1Z"/><path d="M619.08,423q-36.58,25.5-102.71,25.5A247.36,247.36,0,0,1,455,440.62q-2.28,3.35-12,15.3l-25.5,31.48q-33.24,41-55.57,41-11.08,0-11.08-9.85,0-7.21,10.55-16L375,491.27l27.79-22.86,37.64-31.84Q424,429.72,424,423.38c0-1.64,1.46-3.87,4.4-6.68l12.31-11.61q4-3.69,4.92-3.87a19.5,19.5,0,0,1,4.22,1.94,111.83,111.83,0,0,0,18.82,8.26l5.45-4.57q30.25-25.32,54.35-43.61l.52-.36q14.78-11.07,41.69-29,41.14-27.25,55.57-27.26,13.73,0,21.63,14.78,9.5,17.94,19.35,72.28,3.35,22.33,6.51,44.67,7.38,33.94,21.8,33.95,4.93,0,19.35-7l13-6.33a8.66,8.66,0,0,1,2.82-1.06,1.29,1.29,0,0,1,1.41,1.23q0,1.59-16.89,16.19-36.93,32-54.69,32-11.79,0-17.24-11.6-3-6.33-5.45-22.16Q636.31,463.66,630,400q-4.4-43.44-15.65-56.28-8.08-9.13-18.29-9.14-17.06,0-59.79,33.24a704.93,704.93,0,0,0-54,46.78q42.57,9.68,110.45,9.67,4.39,0,13.19-.61T619.08,423Z"/><path class="cls-1" d="M892.49,542c-12.7,0-26.73-3.07-41.71-9.11l-.4-.19c-12.23-6.46-34.58-17.93-66.42-34.08l-.28-.14C767,512,752.52,518.62,739.48,518.62a29.44,29.44,0,0,1-21.8-9.12,30.3,30.3,0,0,1-8.88-21.92c0-16.16,8.58-28.42,25.5-36.43a61.8,61.8,0,0,1,26.46-5.69c12.62,0,27.6,4.3,44.56,12.78,20.67-20.62,36.4-39.85,46.84-57.27-11-2.94-20-10-26.82-21.05l-4.06-6.57H829c19.83,0,36.69-4.33,50.1-12.86,12-7.81,24-21,35.43-39.12,6.43-10.31,13.57-15.55,21.22-15.55,5.68,0,13.66,2.29,19.46,13.19a46.19,46.19,0,0,1,5.07,21.54c0,21.89-13.73,39.47-40.8,52.26C906.24,399,893,402.34,880,402.69c-10.43,14.75-30.46,35.3-61,62.63,8.17,4.5,20,10.74,35.39,18.6,27.28,13.93,52,21,73.49,21,15,0,28-4.25,38.67-12.63,11.43-9.06,17-20.5,17-34.95v-4.46c-.22-1-.44-2.24-.66-3.68l0-.42-.18-3.17c-.26-3.93,2-6.89,5.74-7.47l.34-.06H989c9.23,0,9.23,14.25,9.23,19.61,0,22.66-11.1,42.57-33,59.18C943.14,533.55,918.66,542,892.49,542ZM854.2,525c13.88,5.57,26.76,8.4,38.29,8.4,24.25,0,47-7.88,67.58-23.41a95.92,95.92,0,0,0,14-12.78c-.71.62-1.45,1.23-2.2,1.83-12.24,9.61-27,14.48-44,14.48-22.86,0-48.9-7.38-77.41-21.93-19.16-9.81-32.94-17.12-41-21.73l-2.31-1.32-.21.21-2.78-1.44c-16.88-8.78-31.48-13.24-43.39-13.24A53.27,53.27,0,0,0,738,458.94c-9.17,4.34-15.22,9.92-18.25,16.89.39-.48.81-.95,1.25-1.42a21,21,0,0,1,15.7-6.79c10.1,0,23.94,5.93,42.3,18.13l4.57,3,4.3,2.15C819.57,507,841.89,518.49,854.2,525ZM736.67,476.23a12.51,12.51,0,0,0-9.46,4.11,14.4,14.4,0,0,0,.38,20.3,15,15,0,0,0,10.84,4.27c8.83,0,19.26-5.06,31.06-15.05C755.14,480.81,744.11,476.23,736.67,476.23Zm100.6-94.51a33.61,33.61,0,0,0,22.15,11.89l6.32.77L862.67,400c-6.66,12.1-15.84,25-27.42,38.67,18.84-17.93,31.87-32.21,38.9-42.62l1.28-1.9h2.29c12.43,0,25.24-3.06,38.09-9.09,24.13-11.4,35.86-25.95,35.86-44.47A37.59,37.59,0,0,0,947.59,323c-4.1-7.7-8.72-8.59-11.84-8.59-4.48,0-9.17,3.87-13.93,11.51-12.14,19.23-25,33.29-38.07,41.79C870.85,376,855.25,380.63,837.27,381.72Z"/><path d="M829,377.66q31.14,0,52.41-13.55,19-12.3,36.76-40.45,8.45-13.53,17.59-13.54,9.84,0,15.65,10.91A41.64,41.64,0,0,1,956,340.55q0,30.26-38.34,48.36-20.22,9.49-39.92,9.5-15.3,22.68-66.13,67.71,12,6.86,40.8,21.63,42,21.47,75.45,21.46,24.09,0,41.33-13.54,18.65-14.78,18.64-38.34V452.4c-.23-1-.47-2.34-.7-3.87l-.17-3.16c-.12-1.76.58-2.76,2.11-3q4.92,0,4.92,15.3,0,32-31.31,55.75-32.17,24.27-70.17,24.27-18.29,0-40.1-8.79-18.28-9.67-66.48-34.12l-2.81-1.41q-25,20.92-43.62,20.93a25.19,25.19,0,0,1-18.73-7.83,26,26,0,0,1-7.65-18.9q0-21.65,23-32.54a57.27,57.27,0,0,1,24.63-5.28q19,0,45.37,13.72,36.4-35.88,52.76-65.6Q840.08,395.6,829,377.66ZM776.59,489.33q-26.21-17.4-39.92-17.41a16.69,16.69,0,0,0-12.57,5.46,18.7,18.7,0,0,0,.52,26.38,19.29,19.29,0,0,0,13.81,5.45Q755,509.21,776.59,489.33Z"/></g></g></svg>