<svg xmlns="http://www.w3.org/2000/svg" viewBox="0 0 709.44 510.61"><defs><style>.cls-1{fill:none;stroke:#000;stroke-miterlimit:10;stroke-width:2px;}</style></defs><title>logoa55</title><g id="Camada_2" data-name="Camada 2"><g id="Layer_4" data-name="Layer 4"><path d="M309,115.88h15.56v51.8c0,11.95.75,25.77,20.92,25.77s20.92-13.82,20.92-25.77v-51.8h15.56v56.9c0,22.79-14.56,34.12-36.48,34.12S309,195.57,309,172.78Z"/><path d="M399.87,123.92h64v13.44H415.43v23.29h44.83v12.7H415.43v26h49.31v13.45H399.87Z"/><path d="M477.69,123.92h16.43l40.59,65.49H535V123.92h14.82v88.9H533.34l-40.46-65.37h-.38v65.37H477.69Z"/><path d="M559.28,123.92h72v13.44H603v75.46H587.42V137.36H559.28Z"/><path d="M658.64,123.92h16.57l34.23,88.9H692.76l-8.34-23.54H648.93l-8.34,23.54H624.53Zm-5.47,53.54h27.14L667,139.23h-.37Z"/><path d="M64.75,145.21c-2.62-10.21-9.22-17.68-22.17-17.68-19,0-27,16.8-27,33.86s8,33.87,27,33.87c13.83,0,21.42-10.33,22.67-23.28H80.43c-1.24,21.29-16.3,36-37.85,36C15.94,208,0,186.79,0,161.39s15.94-46.56,42.58-46.56c20.05.12,35.86,11.2,37.73,30.38Z"/><path d="M101.53,116.94h15.56c0,8,1.43,18-.49,25.85-2,8.12-5.46,13.78-6.41,22.24-.86,7.57,1.08,15.43-.59,23a87.29,87.29,0,0,0-5.21,17.84H88.83A86.66,86.66,0,0,1,94,188c1.67-7.54-.27-15.4.59-23,1-8.46,4.41-14.12,6.41-22.24C103,135,101.53,124.9,101.53,116.94Z"/><path d="M128.62,116.94h16.43l40.87,65.5h.25v-65.5H201v88.9H184.55l-40.74-65.37h-.37v65.37H128.62Z"/><path d="M121.07,440.22l-8-4.05S201.58,372,229.76,347.05c18.2-16.13,91.06-94.1,77.55-108.94-26.2-28.77-33-35.5-33-35.5A42.65,42.65,0,0,1,253.4,208c-26.64,0-42.58-21.17-42.58-46.57s15.94-46.56,42.58-46.56S296,136,296,161.39c0,12.21-3.73,25.65-12.57,34.12,0,0,12.68,15.1,31.9,40.39,5.24,6.9-11,47.65-74.23,112.25C216.15,373.63,121.07,440.22,121.07,440.22ZM254.4,185.3l7.47-8.59,10.83,9.46c5.6-6.72,7.72-15.81,7.72-24.78,0-17.06-8-33.86-27-33.86s-27,16.8-27,33.86,8,33.87,27,33.87a23.44,23.44,0,0,0,10-2.12Z"/><path d="M0,250.18l692.73-22.3v13.45L15.56,263.63v23.28l673.56-22.3v12.7L15.56,299.61v26l678-22.3v13.45L0,339.08Z"/><path d="M64.74,389.2c-2.61-10.21-9.21-17.68-22.16-17.68-19,0-27,16.81-27,33.87s8,33.87,27,33.87C56.4,439.26,64,428.92,65.24,416H80.43c-1.24,21.3-16.31,36-37.85,36C15.94,452,0,430.79,0,405.39s15.94-46.57,42.58-46.57C62.63,359,78.44,370,80.31,389.2Z"/><path d="M94.63,360.94h15.56v88.9H94.63Z"/><path d="M128.62,360.94h16.43l40.59,65.49h.25V360.94h14.82v88.9H184.27L143.8,384.47h-.37v65.37H128.62Z"/><path d="M278.87,389.28c-2.62-10.2-9.22-17.68-22.17-17.68-19,0-27,16.81-27,33.87s8,33.87,27,33.87c13.83,0,21.42-10.34,22.67-23.29h15.19c-1.25,21.3-16.31,36-37.86,36-26.64,0-42.57-21.17-42.57-46.57s15.93-46.57,42.57-46.57c20.05.13,35.86,11.21,37.73,30.38Z"/><path d="M327.3,431.67c-.05,25.1-21.46,64.07-41.66,69.44C274.71,504,267,518.8,254.37,504.43c-7.82-8.92-11.32-35-11.31-46.67,0-10.85,3-22.08,9.67-30.8,3.4-4.42,7.56-6.6,11.51-10.24,7.52-6.94,13.06-20.91,21.4-22.6C304.27,390.34,327.36,407.72,327.3,431.67Zm-68.67,26.09c.21,5.1.64,20,6.36,23.29,7.77,4.49,14.81-5,20.65-6.5,14.1-3.56,26.75-18.9,26.86-35.47.1-15.77-12.64-35.05-26.86-32.27C273,409.27,258,443.21,258.63,457.76Z"/><path class="cls-1" d="M62.89,79.7c0,3.58.77,5,3.45,5a20.55,20.55,0,0,0,3.58-.25V94.52a36.38,36.38,0,0,1-9.2,1.66c-5.88,0-10.09-2-11.24-8.05-5.75,5.63-15.08,8.05-22.87,8.05C14.73,96.18,4,89.79,4,76.89,4,60.41,17.15,57.73,29.42,56.32c10.48-1.92,19.8-.77,19.8-9.33,0-7.53-7.79-8.94-13.67-8.94-8.17,0-13.92,3.32-14.56,10.48H6.42c1-17,15.46-22,30-22,12.9,0,26.44,5.24,26.44,19.17ZM48.33,61.3c-4.47,2.94-11.5,2.82-17.89,4s-11.88,3.33-11.88,11c0,6.52,8.3,8.43,13.41,8.43,6.39,0,16.36-3.32,16.36-12.52ZM37.34,1H54.59L36.45,19.27H25.84Z"/><path class="cls-1" d="M78.61,28.34H92.28V41.12h.25c1.66-7,10.35-14.57,19.3-14.57a34.08,34.08,0,0,1,5.49.39V41a51.28,51.28,0,0,0-6.26-.64c-10,0-17.89,8-17.89,22.61V94.39H78.61Z"/><path class="cls-1" d="M134.92,65.19c0,10.33,5.61,19.51,17.72,19.51,8.42,0,13.53-3.7,16.08-11h13.77c-3.19,14.41-15.43,22.45-29.85,22.45-20.66,0-32.26-14.41-32.26-34.69,0-18.75,12.24-34.82,31.88-34.82,20.79,0,33.55,18.75,31.12,38.52Zm33.92-9.57c-.51-9.18-6.76-17.48-16.58-17.48-10.07,0-17,7.66-17.34,17.48Z"/><path class="cls-1" d="M249.71,79.73c0,3.57.76,5,3.44,5a20.5,20.5,0,0,0,3.57-.25V94.52a36.31,36.31,0,0,1-9.18,1.66c-5.87,0-10.08-2-11.23-8-5.74,5.62-15.05,8-22.83,8-11.86,0-22.57-6.38-22.57-19.26,0-16.45,13.13-19.13,25.38-20.54,10.46-1.91,19.77-.76,19.77-9.31,0-7.52-7.78-8.93-13.65-8.93-8.16,0-13.9,3.32-14.54,10.46H193.33c1-17,15.43-21.93,30-21.93,12.89,0,26.41,5.22,26.41,19.13ZM235.17,61.36c-4.47,2.93-11.48,2.81-17.86,4s-11.86,3.32-11.86,11c0,6.51,8.29,8.42,13.39,8.42,6.38,0,16.33-3.32,16.33-12.5Z"/></g></g></svg>