<svg xmlns="http://www.w3.org/2000/svg" viewBox="0 0 7965.32 5039.95"><title>logoittakes</title><g id="Camada_2" data-name="Camada 2"><g id="Camada_3" data-name="Camada 3"><path d="M50.88,947.44l88.34-29.09V153L50.88,119.41V108.22H280.55v11.19L192.22,153V918.35l88.33,29.09v11.19H50.88Z"/><path d="M417.19,807.57V427.12H327.68V415.94l90.69-16.79,28.27-190.22h17.67V399.15H619.78v28H464.31V802c0,101.83,24.73,139.87,80.09,139.87,28.27,0,70.67-10.07,101.29-90.63h17.67C638.62,934,586.8,970.94,523.2,970.94,453.71,970.94,417.19,926.18,417.19,807.57Z"/><path d="M1512.15,947.44l88.34-29.09V141.79h-265l-76.56,139.87h-11.77c17.66-78.32,35.33-111.9,41.22-173.44h677.24c5.89,61.54,23.56,95.12,41.23,173.44h-11.78L1918.5,141.79h-265V918.35l88.34,29.09v11.19H1512.15Z"/><path d="M1956.21,824.36c0-173.44,243.81-204.77,349.81-222.67V568.11c0-119.72-68.31-160-137.8-160-86,0-150.76,60.42-150.76,144.34a193.77,193.77,0,0,0,11.78,64.9h-17.67l-47.11-143.23c28.26-35.8,87.15-91.75,213.18-91.75,121.32,0,176.67,51.47,176.67,165.61v365.9h75.38v11.19L2317.8,958.63H2306V819.88c-11.77,38-71.84,151.06-197.87,151.06C2018.64,970.94,1956.21,912.75,1956.21,824.36ZM2306,798.62V618.47c-65.95,13.43-296.81,45.88-296.81,200.29,0,61.55,36.51,119.73,111.89,119.73C2209.44,938.49,2276.58,860.16,2306,798.62Z"/><path d="M3033.92,947.44v11.19H2804.25V947.44l96.58-17.9-184.91-259.6L2614.62,793V929.54l76.56,17.9v11.19H2491V947.44l76.56-17.9V108.22H2491V97l111.89-33.57h11.78V748.27l263.83-315.55-107.18-22.38V399.15H3001v11.19l-93,24.62L2750.07,628.54l214.36,301Z"/><path d="M3039.83,680c0-160,114.25-297.64,261.47-297.64,124.85,0,213.19,97.35,213.19,243.93v16.79H3079.87v6.71c0,158.89,102.48,286.45,240.28,286.45,93,0,166.07-58.18,216.72-174.55h17.66c-37.69,116.37-119,209.24-254.4,209.24C3125.81,970.94,3039.83,818.76,3039.83,680Zm424-70.49c0-115.26-61.24-192.46-167.25-192.46-111.89,0-194.34,85-210.83,192.46Z"/><path d="M3601.65,880.31l56.54-149.94h16.49a249.55,249.55,0,0,0-15.32,85c0,68.25,38.88,124.2,141.34,124.2,104.83,0,174.32-57.06,174.32-125.32,0-71.62-78.91-96.23-203.76-133.16-89.51-26.85-143.69-72.73-143.69-154.42,0-97.34,78.91-144.34,173.13-144.34,93.05,0,150.76,47,179,79.44l-43.58,122h-17.66q10.59-31.89,10.6-57.07c0-70.49-57.72-111.89-133.1-111.89-73,0-142.51,38-142.51,106.3,0,52.59,40,79.45,144.87,109.66,101.29,29.09,199.05,43.64,199.05,165.6,0,116.37-87.16,174.56-196.7,174.56S3629.92,912.75,3601.65,880.31Z"/><path d="M4575.29,716.86H4635c5.63,129.45,103.6,206.47,253.37,206.47,122.74,0,216.2-63.12,216.2-171.17,0-110.18-61.93-138-253.36-172.23-153.15-26.74-246.61-71.68-246.61-199,0-119.82,108.1-202.19,266.88-202.19,163.28,0,257.87,87.72,269.13,212.89H5082c-11.26-107-96.84-163.68-209.45-163.68-131.75,0-208.32,64.19-208.32,151.91,0,94.14,64.19,124.1,223,151.91,156.53,27.81,278.14,63.12,278.14,216.09,0,130.52-109.23,224.66-275.89,224.66C4687.9,972.54,4584.3,863.42,4575.29,716.86Z"/><path d="M5321.87,688c1.12,132.65,64.18,238.56,207.19,238.56,104.73,0,153.15-57.77,176.79-132.66h52.93c-23.65,102.7-100.22,178.66-229.72,178.66-171.16,0-263.5-119.82-263.5-289.91s100.22-288.84,259-288.84c63.06,0,114.86,19.25,153.15,53.49,64.18,56.7,85.58,135.86,84.45,240.7Zm202.69-249.26c-126.12,0-190.31,89.86-201.57,206.46h382.86C5702.48,536.07,5652.93,438.72,5524.56,438.72Z"/><path d="M5817.33,405.55h58.56l128.37,350.9c20.27,56.69,52.92,155.11,52.92,155.11h2.25s33.79-98.42,55.19-155.11l135.12-350.9h56.31L6093.22,958.63h-68.69Z"/><path d="M6417.52,688c1.12,132.65,64.18,238.56,207.2,238.56,104.72,0,153.14-57.77,176.79-132.66h52.92c-23.64,102.7-100.22,178.66-229.71,178.66-171.17,0-263.5-119.82-263.5-289.91s100.21-288.84,259-288.84c63.06,0,114.86,19.25,153.15,53.49,64.18,56.7,85.58,135.86,84.45,240.7Zm202.69-249.26c-126.12,0-190.3,89.86-201.57,206.46h382.87C6798.13,536.07,6748.58,438.72,6620.21,438.72Z"/><path d="M7031.22,514.67h2.25c20.27-38.51,47.3-68.46,82.21-87.72s64.18-24.6,107-24.6v52.41c-32.65-1.07-58.55,3.21-82.2,12.84-61.94,26.75-109.23,89.86-109.23,171.17V958.63H6976V405.55h55.18Z"/><path d="M7666.31,892.31V873.05h-3.37c-32.66,43.86-91.22,99.49-210.58,99.49-107,0-185.8-52.42-185.8-154,0-131.58,108.1-158.33,229.72-170.09,137.38-12.84,168.91-19.26,168.91-70.61V558.53c0-83.44-51.8-119.81-146.39-119.81-109.23,0-167.79,42.79-175.67,124.09h-56.3c11.26-107,86.7-169,232-169,129.5,0,201.57,54.56,201.57,168V887c0,29.95,16.89,38.51,37.16,38.51,7.88,0,16.89-2.14,27-5.35h3.38v38.51c-9,4.28-22.52,8.56-45,8.56C7697.85,967.19,7666.31,943.66,7666.31,892.31Zm-1.12-130.52V659.09c-40.54,19.26-102.47,26.75-162.16,33.17-102.47,10.69-180.17,23.53-180.17,128.37,0,78.09,60.81,108,135.13,108C7589.74,928.68,7665.19,845.24,7665.19,761.79Z"/><path d="M7888.14,193.74h55.17V958.63h-55.17Z"/><path d="M64.59,1177.13H151l296,704.75h2.31l286.83-704.75H826v782.45H767.27V1252.64H765S743.08,1315,723.5,1363.17L477,1959.58h-59.9L166,1363.17c-17.28-41.59-41.47-110.53-41.47-110.53h-2.31v706.94H64.59Z"/><path d="M1000,1177.13h56.44v87.55H1000Zm0,216.67h56.44v565.78H1000Z"/><path d="M1273,1489h2.3c39.17-60.18,106-106.15,207.35-106.15s182,60.19,182,172.91v403.81h-56.45V1561.24c0-93-53-132.41-135.93-132.41-106,0-199.28,71.13-199.28,165.24v365.51h-56.45V1393.8H1273Z"/><path d="M2196.81,1959.58v-86.45h-2.3c-39.16,54.72-91,99.58-191.22,99.58-109.44,0-191.22-62.37-191.22-175.09V1393.8h56.44v398.35c0,93,56.44,134.6,145.15,134.6,104.82,0,183.15-75.51,183.15-175.1V1393.8h56.45v565.78Z"/><path d="M2368.45,1393.8h92.15V1223.09H2517V1393.8h108.29v44.87H2517v424.61c0,41.58,17.28,54.71,56.45,54.71,15,0,34.56-4.37,44.93-9.85h3.45v46c-18.43,6.57-35.71,9.85-59.9,9.85-61,0-101.37-29.55-101.37-96.31v-429h-92.15Z"/><path d="M2769.31,1682.71c1.15,135.7,65.66,244,212,244,107.13,0,156.66-59.1,180.85-135.7h54.14c-24.19,105.06-102.52,182.76-235,182.76-175.1,0-269.56-122.57-269.56-296.57s102.52-295.47,264.95-295.47c64.51,0,117.5,19.69,156.66,54.72,65.66,58,87.55,139,86.4,246.22Zm207.35-255c-129,0-194.68,91.93-206.2,211.21h391.66C3158.67,1527.32,3108,1427.73,2976.66,1427.73Z"/><path d="M3309.58,1788.86h57.59c8.07,93,78.34,139,177.4,139,100.22,0,160.12-47.06,160.12-121.48,0-61.28-31.1-85.36-162.42-114.9-122.11-27.36-213.11-58-213.11-158.68,0-94.12,89.85-151,202.74-151,137.08,0,198.13,68.94,212,160.87h-55.29c-8.07-72.23-66.82-113.81-156.67-113.81-96.76,0-146.3,43.77-146.3,102.86,0,65.66,55.3,84.27,177.4,111.63,119.81,26.26,198.14,56.9,198.14,164.15,0,91.92-77.18,166.34-216.57,166.34C3389.06,1973.81,3315.34,1886.26,3309.58,1788.86Z"/><path d="M6474.17,1948.39c75.38-10.07,88.33-19,88.33-72.73V1193.09c0-54.83-14.13-61.54-88.33-72.73v-11.19h500.57c5.89,61.54,23.55,95.11,41.22,173.44h-11.78c-29.44-100.71-64.78-139.87-135.45-139.87H6650.84c-33,0-35.34,21.26-35.34,50.35v292.05h111.9c70.66,0,106-39.16,135.44-95.11h11.78c-17.66,33.57-41.22,67.13-41.22,111.9s23.56,78.32,41.22,111.89h-11.78c-29.44-56-64.78-95.11-135.44-95.11H6615.5v357c0,53.71,9.43,61.54,88.34,72.73v11.19H6474.17Z"/><path d="M6978.28,1679.84c0-127.56,87.17-296.53,272.08-296.53,186.1,0,257.94,167.85,257.94,288.7,0,126.44-78.91,299.88-262.65,299.88C7067.8,1971.89,6978.28,1809.64,6978.28,1679.84Zm481.73,7.83c0-136.51-78.91-269.67-221.43-269.67-128.38,0-217.89,108.54-217.89,242.82,0,139.87,95.4,276.38,240.27,276.38C7375.21,1937.2,7460,1828.66,7460,1687.67Z"/><path d="M7574.28,1948.39c57.72-11.19,76.56-21.26,76.56-72.73V1517.59c0-58.18-8.24-77.21-41.22-77.21-10.6,0-21.2,2.24-35.34,4.48v-11.19l111.89-33.57H7698v161.13h1.18c20-76.09,68.31-177.92,156.65-177.92,57.71,0,91.87,43.65,109.54,70.5l-80.09,167.84h-5.89c16.49-42.52,27.08-83.92,27.08-119.72,0-51.48-22.37-88.4-62.42-88.4-81.27,0-135.44,156.65-146.05,263v199.18c0,53.71,21.21,61.54,76.56,72.73v11.19H7574.28Z"/><path d="M2263.42,2949.34c81.28-11.19,88.34-21.26,88.34-72.73V2182.85c0-30.21-8.24-39.17-35.34-39.17H2145.64c-70.67,0-106,39.17-135.45,139.87h-11.77c17.66-78.32,35.33-111.89,41.22-173.43h677.24c5.89,61.54,23.56,95.11,41.23,173.43h-11.78c-29.45-100.7-64.78-139.87-135.45-139.87H2440.1c-27.09,0-35.34,9-35.34,39.17v693.76c0,53.7,9.43,61.54,88.34,72.73v11.19H2263.42Z"/><path d="M2811.13,2949.34c57.71-11.19,76.55-20.14,76.55-68.26V2182.85c0-75-11.77-83.92-76.55-72.73v-11.19L2923,2065.36h11.78V2534.2c16.49-44.75,75.38-149.94,208.47-149.94,86,0,143.7,45.88,143.7,167.85v329c0,48.12,21.19,57.07,76.55,68.26v11.19H3163.29v-11.19c54.18-10.07,76.56-20.14,76.56-68.26V2585.67c0-123.08-43.57-166.72-128.38-166.72-81.27,0-159,88.4-176.67,169v293.17c0,48.12,21.2,57.07,76.56,68.26v11.19H2811.13Z"/><path d="M3410.64,2681.91c0-160,114.25-297.65,261.48-297.65,124.85,0,213.18,97.35,213.18,243.93v13.43H3450.69v10.07c0,158.9,102.47,286.46,240.27,286.46,93.05,0,177.85-58.19,228.5-174.56h5.89c-37.69,116.37-119,209.24-254.41,209.24C3496.62,2972.83,3410.64,2820.66,3410.64,2681.91Zm424-70.5c0-115.25-61.24-192.46-167.24-192.46-111.9,0-194.35,85-210.83,192.46Z"/><path d="M4276.33,2949.34c75.38-10.07,88.33-19,88.33-72.73V2194c0-54.83-15.31-62.66-88.33-72.74v-11.18H4776.9c5.89,61.54,23.55,95.11,41.22,173.43h-11.78c-29.44-100.7-64.78-139.87-135.45-139.87H4453c-33,0-35.34,21.27-35.34,50.36v292.05h111.89c70.67,0,106-39.17,135.45-95.11h11.78c-17.66,33.56-41.22,67.13-41.22,111.89s23.56,78.33,41.22,111.9H4665c-29.44-55.95-64.78-95.11-135.45-95.11H4417.66v357c0,32.44,4.72,50.35,35.34,50.35h229.67c70.67,0,106-39.17,135.45-139.87h11.78c-17.67,78.33-35.34,111.89-41.22,173.44H4276.33Z"/><path d="M4828.73,3106h5.89c34.16,48.12,76.56,64.9,102.47,64.9,61.25,0,129.56-92.87,169.61-210.36L4910,2469.3c-16.49-41.4-40-51.47-97.75-57.06v-11.19h229.67v11.19c-45.94,7.83-84.8,5.59-84.8,35.8,0,5.6,1.18,12.31,4.71,21.26L5135,2905.7l160.18-440.87a62.6,62.6,0,0,0,4.71-22.38c0-33.57-40-25.74-90.69-30.21v-11.19h229.67v11.19c-60.06,5.59-91.87,6.71-110.71,56L5158.52,2918c-81.27,216-144.87,273-209.65,273C4897.05,3191,4860.53,3154.11,4828.73,3106Z"/><path d="M5433,2681.91c0-160,114.24-297.65,261.47-297.65,124.85,0,213.19,97.35,213.19,243.93v13.43H5473v10.07c0,158.9,102.48,286.46,240.28,286.46,93.05,0,177.85-58.19,228.5-174.56h5.88c-37.69,116.37-119,209.24-254.41,209.24C5519,2972.83,5433,2820.66,5433,2681.91Zm424-70.5c0-115.25-61.24-192.46-167.25-192.46-111.89,0-194.34,85-210.83,192.46Z"/><path d="M5994.79,2882.2l68.31-149.94h4.72a249.55,249.55,0,0,0-15.32,85c0,68.26,38.88,124.2,141.34,124.2,104.83,0,174.32-57.06,174.32-125.32,0-71.61-78.91-96.23-203.76-133.15-89.52-26.86-143.69-72.74-143.69-154.42,0-97.35,78.91-144.35,173.13-144.35,93.05,0,150.76,47,179,79.45l-55.35,122h-5.89q10.59-31.89,10.6-57.06c0-70.5-57.72-111.9-133.1-111.9-73,0-142.51,38.05-142.51,106.3,0,52.59,40,79.45,144.87,109.66,101.29,29.1,199.05,43.64,199.05,165.61,0,116.37-87.16,174.55-196.7,174.55S6023.06,2914.65,5994.79,2882.2Z"/><path d="M7017.12,2949.34c81.27-11.19,88.34-21.26,88.34-72.73V2182.85c0-30.21-8.25-39.17-35.34-39.17H6899.34c-70.67,0-106,39.17-135.45,139.87h-11.78c17.67-78.32,35.34-111.89,41.23-173.43h677.24c5.89,61.54,23.56,95.11,41.23,173.43H7500c-29.45-100.7-64.78-139.87-135.45-139.87H7193.8c-27.1,0-35.34,9-35.34,39.17v693.76c0,53.7,9.42,61.54,88.33,72.73v11.19H7017.12Z"/><path d="M7427,2680.78c0-127.55,87.16-296.52,272.08-296.52,186.09,0,257.94,167.85,257.94,288.69,0,126.45-78.92,299.88-262.66,299.88C7516.53,2972.83,7427,2810.59,7427,2680.78Zm481.73,7.84c0-136.51-78.92-269.67-221.43-269.67-128.38,0-217.9,108.54-217.9,242.82,0,139.86,95.4,276.38,240.28,276.38C7824,2938.15,7908.75,2829.61,7908.75,2688.62Z"/><path d="M314.38,3187.82h67.2l315.51,773.65h-61.5L535.35,3713.69H160.61L60.37,3961.47H0ZM180,3666.08H516l-123-307.3c-18.23-44.36-44.42-114.69-44.42-114.69h-2.28s-22.78,66-42.15,114.69Z"/><path d="M775.67,3683.39c0-186.11,110.48-293.23,247.17-293.23,94.54,0,161.74,42.2,199.33,113.61h2.28V3187.82h55.81v773.65h-55.81v-93h-2.28c-43.28,69.25-105.93,107.12-198.19,107.12C866.79,3975.54,775.67,3850,775.67,3683.39Zm454.48,1.08c0-141.74-71.77-248.86-202.75-248.86-120.74,0-194.78,99.54-194.78,248.86,0,134.18,61.51,246.71,193.64,246.71C1153.83,3931.18,1230.15,3832.71,1230.15,3684.47Z"/><path d="M1386.16,4095.65h11.39c45.57,0,66.07-20.56,66.07-70.34V3402.06h55.81V4026.4c0,82.23-39.87,114.69-118.46,114.69h-14.81Zm77.46-907.83h55.81v86.56h-55.81Z"/><path d="M2078.69,3961.47V3876h-2.28c-38.73,54.1-90,98.47-189.08,98.47-108.21,0-189.08-61.68-189.08-173.13V3402.06h55.82v393.86c0,92,55.81,133.09,143.51,133.09,103.66,0,181.11-74.66,181.11-173.12V3402.06h55.81v559.41Z"/><path d="M2276.86,3792.68h56.95c8,92,77.45,137.41,175.41,137.41,99.1,0,158.33-46.52,158.33-120.1,0-60.59-30.76-84.4-160.61-113.61-120.74-27.05-210.72-57.35-210.72-156.9,0-93.05,88.84-149.32,200.47-149.32,135.55,0,195.91,68.17,209.58,159.06H2651.6c-8-71.41-66.06-112.53-154.91-112.53C2401,3436.69,2352,3480,2352,3538.4c0,64.92,54.68,83.32,175.41,110.37,118.46,26,195.92,56.26,195.92,162.3,0,90.89-76.31,164.47-214.14,164.47C2355.45,3975.54,2282.55,3889,2276.86,3792.68Z"/><path d="M2815.6,3402.06h91.12V3233.27h55.82v168.79h107.07v44.37H2962.54v419.83c0,41.11,17.08,54.1,55.81,54.1,14.81,0,34.17-4.33,44.42-9.74h3.42v45.44c-18.22,6.5-35.31,9.74-59.23,9.74-60.37,0-100.24-29.21-100.24-95.22V3446.43H2815.6Z"/><path d="M3762.3,3950.28c81.27-11.19,88.34-21.26,88.34-72.73V3183.79c0-30.21-8.25-39.16-35.34-39.16H3644.52c-70.67,0-106,39.16-135.45,139.87h-11.78c17.67-78.32,35.33-111.9,41.22-173.44h677.25c5.89,61.54,23.55,95.12,41.22,173.44H4245.2c-29.44-100.71-64.78-139.87-135.45-139.87H3939c-27.09,0-35.34,8.95-35.34,39.16v693.76c0,53.71,9.43,61.54,88.34,72.73v11.19H3762.3Z"/><path d="M4184,3681.73c0-127.56,87.16-296.52,272.08-296.52,186.09,0,257.94,167.84,257.94,288.69,0,126.44-78.91,299.88-262.66,299.88C4273.5,3973.78,4184,3811.53,4184,3681.73Zm481.73,7.84c0-136.52-78.92-269.67-221.43-269.67-128.38,0-217.9,108.53-217.9,242.81,0,139.87,95.4,276.38,240.28,276.38C4580.91,3939.09,4665.71,3830.55,4665.71,3689.57Z"/><path d="M5365.33,3950.28c81.27-11.19,88.34-21.26,88.34-72.73V3183.79c0-30.21-8.25-39.16-35.34-39.16H5247.55c-70.67,0-106,39.16-135.45,139.87h-11.78c17.67-78.32,35.34-111.9,41.23-173.44h677.24c5.89,61.54,23.55,95.12,41.22,173.44h-11.78c-29.44-100.71-64.78-139.87-135.44-139.87H5542c-27.09,0-35.33,8.95-35.33,39.16v693.76c0,53.71,9.42,61.54,88.33,72.73v11.19H5365.33Z"/><path d="M5924.81,3950.28c57.71-11.19,76.56-20.14,76.56-68.25V3183.79c0-75-11.78-83.92-76.56-72.73v-11.19l111.89-33.57h11.78v468.85c16.49-44.76,75.38-149.94,208.47-149.94,86,0,143.7,45.88,143.7,167.84v329c0,48.11,21.2,57.06,76.55,68.25v11.19H6277v-11.19c54.17-10.07,76.56-20.14,76.56-68.25V3586.62c0-123.08-43.58-166.72-128.39-166.72-81.27,0-159,88.39-176.67,169V3882c0,48.11,21.2,57.06,76.56,68.25v11.19H5924.81Z"/><path d="M6536.1,3682.85c0-160,114.25-297.64,261.48-297.64,124.85,0,213.19,97.35,213.19,243.93v13.43H6576.15v10.07c0,158.89,102.47,286.45,240.27,286.45,93.05,0,177.85-58.18,228.5-174.55h5.89c-37.69,116.37-119,209.24-254.41,209.24C6622.08,3973.78,6536.1,3821.6,6536.1,3682.85Zm424-70.49c0-115.26-61.25-192.46-167.25-192.46-111.89,0-194.34,85-210.83,192.46Z"/><path d="M5623.64,4188.77H5908.4c236.92,0,339.44,162.3,339.44,389.53s-110.49,384.12-347.41,384.12H5623.64Zm274.51,723.88c197.06,0,288.18-129.85,288.18-334.35s-83.15-338.68-280.2-338.68H5682.87v673Z"/><path d="M6739.88,4895.34v-19.48h-3.41c-33,44.36-92.27,100.63-213,100.63-108.21,0-187.95-53-187.95-155.81,0-133.09,109.35-160.15,232.37-172.05,139-13,170.86-19.47,170.86-71.41v-19.48c0-84.4-52.4-121.19-148.08-121.19-110.49,0-169.72,43.29-177.69,125.52H6356c11.39-108.2,87.7-171,234.64-171,131,0,203.89,55.18,203.89,169.88v328.94c0,30.29,17.08,38.95,37.59,38.95,8,0,17.08-2.17,27.33-5.41h3.42v38.95c-9.11,4.33-22.78,8.66-45.56,8.66C6771.78,4971.08,6739.88,4947.27,6739.88,4895.34Zm-1.13-132V4659.45c-41,19.48-103.66,27.05-164,33.55-103.65,10.82-182.24,23.8-182.24,129.84,0,79,61.51,109.28,136.68,109.28C6662.43,4932.12,6738.75,4847.73,6738.75,4763.33Z"/><path d="M7016.64,4513.38h2.28c20.5-38.95,47.84-69.25,83.15-88.73s64.92-24.89,108.2-24.89v53c-33-1.08-59.22,3.25-83.15,13-62.64,27-110.48,90.89-110.48,173.12v323.53h-55.82V4403h55.82Z"/><path d="M7498.43,4641.06l-123,112.53v208.83H7319.6V4188.77h55.81v503.14L7692.07,4403h70.62L7538.3,4605.35,7790,4962.42h-63.78Z"/><path d="M7886.82,4876.94h69.48v85.48h-69.48Z"/><path d="M4454,0c1137.88,220,1997.2,1221.42,1997.2,2423.56,0,1363.33-1105.2,2468.53-2468.53,2468.53S1514.13,3786.89,1514.13,2423.56C1514.13,1221.42,2373.45,220,3511.32,0,2332.73,221,1440.86,1255.4,1440.86,2498.15c0,1403.8,1138,2541.8,2541.8,2541.8s2541.8-1138,2541.8-2541.8C6524.46,1255.4,5632.58,221,4454,0Z"/><line x1="1058.3" y1="1432.49" x2="1058.3" y2="1486.98"/><line x1="1621.09" y1="958.64" x2="1584.87" y2="958.64"/><polyline points="1655.39 906.82 1655.39 918.35 1668.52 922.68"/><path d="M2306.05,537.24c-.36-3.19-.63-6.5-1.1-9.54"/><path d="M2353.16,505.71c.43,2.83.75,5.79,1.09,8.73"/><line x1="2569.41" y1="422.69" x2="2569.41" y2="416.31"/><line x1="2616.52" y1="399.05" x2="2616.52" y2="404.59"/><polyline points="7902.09 4962.42 7888.72 4962.42 7888.72 4876.94 7918.47 4876.94"/><line x1="769.17" y1="1862" x2="769.17" y2="1779.98"/><polyline points="7766.26 4926.02 7791.92 4962.42 7757.38 4962.42"/><path d="M7798.15,2951.94a241.05,241.05,0,0,1-79.2,19.88"/><path d="M1668.52,922.68l-13.13-4.33V906.82q-35.55,25.51-70.52,51.82h36.22Q1644.69,940.5,1668.52,922.68Z"/><path d="M2354.25,514.44c-.34-2.94-.66-5.9-1.09-8.73q-24.21,10.83-48.21,22c.47,3,.74,6.35,1.1,9.54C2322.07,529.55,2338.11,521.91,2354.25,514.44Z"/><path d="M2616.52,404.59v-5.54c-15.71,5.73-31.48,11.35-47.11,17.26v6.38Q2592.9,413.5,2616.52,404.59Z"/><path d="M5049.89,302.31c.75,1,1.58,1.9,2.3,2.91q38.18,10.89,76,22.59c-.42-1.12-.79-2.26-1.23-3.37Q5088.59,313,5049.89,302.31Z"/><path d="M4726,227.27c20,3.88,39.91,8.08,59.82,12.26l.69-.21C4766.41,235.22,4746.28,231.07,4726,227.27Z"/><path d="M5685.16,537.51c1.91,4.27,3.78,8.57,5.43,13,21.62,10.59,43.18,21.28,64.57,32.26-.93-4.4-2-8.72-3.05-13Q5718.8,553.36,5685.16,537.51Z"/><path d="M5409.08,420c-2.4,1.19-4.82,2.34-7.16,3.6,20.18,7.91,40.33,15.9,60.35,24.14,3.51-1.06,7.26-1.82,10.91-2.7Q5441.28,432.2,5409.08,420Z"/><path d="M6111.21,770.68c-1.88,5.08-3.81,10.35-5.77,15.75,14.94,9.76,29.72,19.73,44.52,29.68l6.43-16.71C6141.42,789.69,6126.32,780.19,6111.21,770.68Z"/><path d="M5912,653.29l7.07,18.88q36.09,20.77,71.69,42.31l-7.7-21.06Q5947.79,673,5912,653.29Z"/><path d="M827.92,1777.89v-75.15Q798.12,1741,769.17,1780v82Q798,1819.52,827.92,1777.89Z"/><path d="M1058.3,1487v-54.49q-28.54,30.65-56.44,61.87V1553Q1029.7,1519.67,1058.3,1487Z"/><path d="M6870.82,1390h-6.08c-5.13,9.74-10.46,18.94-16.1,27.55,2.7,3,5.46,5.83,8.15,8.78,5.77-11.13,11.94-21.88,17.69-32.58C6873.27,1392.53,6872,1391.29,6870.82,1390Z"/><path d="M6572.72,1109.18h-40.61q43.24,37.62,85.41,76.43c.3-12.92,1.84-23.76,7.18-31.35Q6598.87,1131.53,6572.72,1109.18Z"/><path d="M7306.89,1931.44a173.12,173.12,0,0,1-44,5.76q-6.75,0-13.35-.39,10.92,16.92,21.66,34a246.88,246.88,0,0,0,54.57-10.65C7319.44,1950.57,7313.26,1940.93,7306.89,1931.44Z"/><path d="M7010.78,1543.83a339.74,339.74,0,0,0-16.17,42.65c10.21,12.52,20.46,25,30.52,37.65a273.05,273.05,0,0,1,11.17-50.51Q7023.63,1558.65,7010.78,1543.83Z"/><path d="M7501.93,2283.55h11.78c-1-4.58-2.07-9-3.1-13.27q-43.57-81.22-90.74-160.16h-64.8q9.68,16.86,19.16,33.85C7439.71,2146.84,7473.59,2186.65,7501.93,2283.55Z"/><path d="M7788.07,2920.25a171.77,171.77,0,0,1-76.47,17.9c-.76,0-1.49-.06-2.25-.07,3.31,11.2,6.39,22.49,9.6,33.74a241.05,241.05,0,0,0,79.2-19.88C7794.81,2941.37,7791.49,2930.78,7788.07,2920.25Z"/><path d="M7596.73,2440.28c-4.58-9.62-9.32-19.15-14-28.73a248.63,248.63,0,0,0-54.58,37.85q6.87,15.29,13.59,30.64A206.28,206.28,0,0,1,7596.73,2440.28Z"/><path d="M62.27,3961.48l43.37-107.23q4.24-90.08,12.58-179L1.9,3961.48Z"/><path d="M7766.26,4926c-2.84,12.18-5.92,24.27-8.88,36.4h34.54Z"/><path d="M7888.72,4962.42h13.37c5.8-28.37,11.18-56.89,16.38-85.48h-29.75Z"/></g></g></svg>