<svg xmlns="http://www.w3.org/2000/svg" viewBox="0 0 5083.61 5039.95"><title>logoittakes_1</title><g id="Camada_2" data-name="Camada 2"><g id="Camada_3" data-name="Camada 3"><path d="M3013.14,0a2450.83,2450.83,0,0,1,631.34,214.42A2470.1,2470.1,0,0,0,3003.12,0q38.41,7.43,76.38,16.06Q3040.46,7.42,3001,0C4109.4,214.31,4946.49,1189.83,4946.49,2360.88c0,1328.07-1076.62,2404.69-2404.69,2404.69S137.12,3689,137.12,2360.88C137.12,1189.83,974.21,214.31,2082.66,0q-39.51,7.41-78.56,16.06,38-8.62,76.38-16.06a2470.1,2470.1,0,0,0-641.36,214.42A2450.9,2450.9,0,0,1,2070.47,0C891.88,221,0,1255.4,0,2498.15,0,3902,1138,5040,2541.8,5040s2541.81-1138,2541.81-2541.8C5083.61,1255.4,4191.73,221,3013.14,0Z"/></g></g></svg>