<svg xmlns="http://www.w3.org/2000/svg" viewBox="0 0 341.96 309.06"><defs><style>.cls-1{fill:#1f140f;}.cls-2{fill:#fff;}</style></defs><title>thereal</title><g id="Camada_2" data-name="Camada 2"><g id="Layer_1" data-name="Layer 1"><path class="cls-1" d="M256.24,309.06l-.5-.41c-14.82-12.15-41.27-34.4-51.83-47a47.77,47.77,0,0,1-3.87-5.29c-2.53-4-9.26-14.71-7.42-28.47,1.26-9.39,5.47-17.28,12.17-22.84a34.62,34.62,0,0,1,21.12-7.76c8.36-.2,16.37,2.64,23.81,8.46a40.12,40.12,0,0,1,6.36,6.27,37.44,37.44,0,0,1,16.11-12.16,35.4,35.4,0,0,1,25.94-.29c15.6,6.2,20.25,21.75,21,24.81,4.36,17.28-9.63,33.53-15.6,40.47l-.55.63c-.33.39-.56.65-1,1.12-10.64,12-25.87,26.12-45.29,42Zm-29.5-110.2H226a33,33,0,0,0-20.15,7.4c-6.4,5.3-10.42,12.85-11.62,21.84-1.77,13.2,4.74,23.53,7.19,27.42a46.5,46.5,0,0,0,3.74,5.12C215.48,273,241.37,294.83,256.24,307c19.12-15.71,34.12-29.65,44.6-41.44l1-1.12.55-.64c5.81-6.75,19.43-22.57,15.26-39.06-.74-2.92-5.18-17.82-20.08-23.73a33.78,33.78,0,0,0-24.79.3,35.89,35.89,0,0,0-16,12.36l-.68-.5-.56.54a8.68,8.68,0,0,1-.68-.7,37.6,37.6,0,0,0-6.12-6C241.84,201.59,234.44,198.86,226.74,198.86Z"/><rect class="cls-1" x="170.33" y="85.1" width="171.63" height="1.42"/><rect class="cls-1" x="255.44" width="1.42" height="171.63"/><rect class="cls-1" x="170.33" y="85.11" width="171.63" height="1.42" transform="translate(14.34 206.26) rotate(-45)"/><rect class="cls-1" x="255.44" y="0.01" width="1.42" height="171.63" transform="translate(14.34 206.26) rotate(-45)"/><polygon class="cls-1" points="239.06 129.21 237.74 128.67 273.23 42.44 274.55 42.98 239.06 129.21"/><polygon class="cls-1" points="298.99 104.22 212.76 68.73 213.3 67.42 299.53 102.91 298.99 104.22"/><polygon class="cls-1" points="273.43 129.13 237.56 43.06 238.86 42.52 274.74 128.59 273.43 129.13"/><rect class="cls-1" x="209.53" y="85.11" width="93.24" height="1.42" transform="translate(-13.26 105.8) rotate(-22.76)"/><circle class="cls-2" cx="256.15" cy="88.65" r="26.83" transform="translate(111.02 317.58) rotate(-76.72)"/><path d="M256.15,116.27a27.62,27.62,0,1,1,27.62-27.62A27.65,27.65,0,0,1,256.15,116.27Zm0-53.67A26.05,26.05,0,1,0,282.2,88.65,26.08,26.08,0,0,0,256.15,62.6Z"/><path class="cls-1" d="M106.07,98.26l45.61-31.32.53-.35L97,66,76.13,10.83v-.28l0,.14,0-.14v.28L55.2,66,0,66.59l.45.34L46.07,98.26,33.28,153.09l2.77-2.27L75,119.27l41.15,31.57,2.74,2.17Zm-2.61-1,10.93,46.87L78,89.85,143.3,70.29Zm-26-76.47L95.35,68.26l46.55.53L77.42,88ZM56.8,68.26l18-47.75V88L8.92,68.81Zm-8.12,29L11,71.35,74,90,37.75,144.12Zm26.24,19.07L39.33,145.18,76.07,91.1l36.65,54.22Z"/><path class="cls-1" d="M62,270.73A43.76,43.76,0,1,1,105.74,227,43.81,43.81,0,0,1,62,270.73Zm0-85.94A42.19,42.19,0,1,0,104.17,227,42.24,42.24,0,0,0,62,184.79Z"/><path class="cls-1" d="M76.11,298.51a61.35,61.35,0,1,1,61.34-61.35A61.42,61.42,0,0,1,76.11,298.51Zm0-121.12a59.77,59.77,0,1,0,59.77,59.77A59.85,59.85,0,0,0,76.11,177.39Z"/></g></g></svg>