<svg xmlns="http://www.w3.org/2000/svg" viewBox="0 0 8.91 29.36"><defs><style>.cls-1{fill:#231f20;}</style></defs><title>back</title><g id="Camada_2" data-name="Camada 2"><g id="Camada_1-2" data-name="Camada 1"><path class="cls-1" d="M8.73,0V3.56a2.6,2.6,0,0,1-.62,1.83A2,2,0,0,1,6.57,6,1.79,1.79,0,0,1,4.71,4.7h0A2.09,2.09,0,0,1,2.57,6.37,2.31,2.31,0,0,1,.89,5.74a2.71,2.71,0,0,1-.73-2V0ZM5,3.55A1.47,1.47,0,0,0,6.51,5.19,1.44,1.44,0,0,0,8,3.57V.8H5ZM.89,3.67a2,2,0,0,0,.49,1.45,1.57,1.57,0,0,0,1.17.43A1.67,1.67,0,0,0,4.27,3.67V.8H.89Z"/><path class="cls-1" d="M8.73,10v.91L.16,14.16v-.87l2.69-1V8.57l-2.69-1V6.74ZM3.51,12.06l3.21-1.18C7.2,10.7,8,10.45,8,10.45v0S7.23,10.2,6.72,10L3.51,8.81Z"/><path class="cls-1" d="M4.44,14.21c2.59,0,4.47,1.47,4.47,3.9a3.08,3.08,0,0,1-2.6,3.29v-.79a2.37,2.37,0,0,0,1.91-2.52c0-2-1.67-3-3.78-3s-3.73,1.07-3.73,3a2.6,2.6,0,0,0,2.56,2.69v.78A3.68,3.68,0,0,1,1,20.66a3.36,3.36,0,0,1-1-2.59C0,15.68,1.81,14.21,4.44,14.21Z"/><path class="cls-1" d="M8.73,22.67v.8H4.16L8.73,28.1v1L5.24,25.56.16,29.36v-1L4.69,25,3.18,23.47h-3v-.8Z"/></g></g></svg>