<svg xmlns="http://www.w3.org/2000/svg" viewBox="0 0 29.36 8.91"><defs><style>.cls-1{fill:#231f20;}</style></defs><title>backho</title><g id="Camada_2" data-name="Camada 2"><g id="Camada_1-2" data-name="Camada 1"><path class="cls-1" d="M0,.18H3.56A2.65,2.65,0,0,1,5.39.8,2,2,0,0,1,6,2.34,1.79,1.79,0,0,1,4.7,4.2v0A2.1,2.1,0,0,1,6.37,6.34,2.31,2.31,0,0,1,5.74,8a2.72,2.72,0,0,1-2,.74H0ZM3.55,4A1.48,1.48,0,0,0,5.19,2.4,1.44,1.44,0,0,0,3.57.89H.8V4ZM3.67,8a2,2,0,0,0,1.45-.49,1.57,1.57,0,0,0,.43-1.17A1.67,1.67,0,0,0,3.67,4.64H.8V8Z"/><path class="cls-1" d="M10,.18h.91l3.27,8.58h-.87l-1-2.7H8.57l-1,2.7H6.74ZM12.06,5.4,10.88,2.19C10.7,1.72,10.45,1,10.45,1h0s-.23.73-.42,1.24L8.81,5.4Z"/><path class="cls-1" d="M14.21,4.47c0-2.59,1.47-4.47,3.9-4.47A3.08,3.08,0,0,1,21.4,2.6h-.79A2.37,2.37,0,0,0,18.09.7c-2,0-3,1.66-3,3.77s1.07,3.73,3,3.73a2.6,2.6,0,0,0,2.69-2.56h.78a3.68,3.68,0,0,1-.89,2.24,3.36,3.36,0,0,1-2.59,1C15.68,8.91,14.21,7.1,14.21,4.47Z"/><path class="cls-1" d="M22.67.18h.8V4.75L28.1.18h1L25.56,3.67l3.8,5.09h-1L25,4.22,23.47,5.73v3h-.8Z"/></g></g></svg>