<svg xmlns="http://www.w3.org/2000/svg" viewBox="0 0 37.1 8.92"><defs><style>.cls-1{fill:#231f20;}</style></defs><title>frontho</title><g id="Camada_2" data-name="Camada 2"><g id="Camada_1-2" data-name="Camada 1"><path class="cls-1" d="M0,.18H5.59V.89H.8v3H4.88v.7H.8V8.76H0Z"/><path class="cls-1" d="M6.67.18H10.5a2.18,2.18,0,0,1,2.43,2.31,1.94,1.94,0,0,1-1.44,2.07v0c.89.3,1.18,1,1.24,2.28s.21,1.73.37,1.84v0h-.86c-.2-.14-.24-.46-.32-1.92s-.58-1.91-1.83-1.91H7.48V8.76H6.67Zm3.55,4.07c1.25,0,1.88-.62,1.88-1.68S11.63.89,10.33.89H7.48V4.25Z"/><path class="cls-1" d="M13.85,4.46c0-2.55,1.56-4.46,4-4.46s4,1.91,4,4.46-1.58,4.46-4,4.46S13.85,7,13.85,4.46Zm7.15,0C21,2.39,19.89.72,17.83.72s-3.14,1.67-3.14,3.74S15.78,8.2,17.83,8.2,21,6.54,21,4.46Z"/><path class="cls-1" d="M23,.18h.88l3.94,6c.43.65.85,1.42.85,1.42h0V.18h.76V8.76h-.84L24.73,2.81c-.4-.6-.9-1.45-.9-1.45h0v7.4H23Z"/><path class="cls-1" d="M33.41.9H30.5V.18h6.6V.9H34.21V8.76h-.8Z"/></g></g></svg>