<svg xmlns="http://www.w3.org/2000/svg" viewBox="0 0 8.92 37.1"><defs><style>.cls-1{fill:#231f20;}</style></defs><title>front</title><g id="Camada_2" data-name="Camada 2"><g id="Camada_1-2" data-name="Camada 1"><path class="cls-1" d="M8.74,0V5.59H8V.8H5V4.88h-.7V.8H.17V0Z"/><path class="cls-1" d="M8.74,6.67V10.5a2.18,2.18,0,0,1-2.31,2.43,1.93,1.93,0,0,1-2.06-1.44h0c-.3.89-1,1.18-2.28,1.24s-1.73.21-1.83.37h0v-.86c.13-.2.45-.24,1.92-.32S4,11.34,4,10.09V7.48H.17V6.67ZM4.68,10.22c0,1.25.61,1.88,1.68,1.88S8,11.63,8,10.33V7.48H4.68Z"/><path class="cls-1" d="M4.46,13.85c2.56,0,4.46,1.56,4.46,4s-1.9,4-4.46,4S0,20.26,0,17.83,1.91,13.85,4.46,13.85Zm0,7.15c2.08,0,3.74-1.11,3.74-3.17s-1.66-3.14-3.74-3.14S.72,15.78.72,17.83,2.39,21,4.46,21Z"/><path class="cls-1" d="M8.74,23v.88l-6,3.94c-.65.43-1.41.85-1.41.85v0H8.74v.76H.17v-.84l6-3.93c.6-.4,1.45-.9,1.45-.9v0H.17V23Z"/><path class="cls-1" d="M8,33.41V30.5h.72v6.6H8V34.21H.17v-.8Z"/></g></g></svg>