<svg xmlns="http://www.w3.org/2000/svg" viewBox="0 0 17.86 97.3"><defs><style>.cls-1{fill:#fff;}</style></defs><title>graphic</title><g id="Camada_2" data-name="Camada 2"><g id="Camada_1-2" data-name="Camada 1"><path class="cls-1" d="M9,97.3C3.89,97.3,0,94.39,0,89.18,0,85.66,1.85,83,5.33,82.42v1.65a4.79,4.79,0,0,0-3.91,5.11c0,4.42,3.38,6.44,7.53,6.44s7.49-2.14,7.49-6.22-2.73-5.66-5.71-5.66h-.6v5.52H8.71V82.15h8.81v1.13l-2.73.34v.07a6.43,6.43,0,0,1,3.07,5.73C17.86,94.44,14.09,97.3,9,97.3Z"/><path class="cls-1" d="M.36,79.3V71.64c0-3.1,1.78-4.87,4.63-4.87a3.89,3.89,0,0,1,4.13,2.88h.07c.6-1.78,1.9-2.35,4.56-2.47s3.46-.44,3.68-.75h.09v1.73c-.26.38-.91.48-3.84.62S9.86,70,9.86,72.46v5.23h7.66V79.3ZM8.5,72.19c0-2.49-1.23-3.77-3.36-3.77s-3.36,1-3.36,3.56v5.71H8.5Z"/><path class="cls-1" d="M.36,59V57.19l17.16-6.53v1.73l-5.4,2v7.47l5.4,2V65.5ZM10.8,54.86,4.39,57.22c-1,.36-2.49.86-2.49.86v.05s1.46.45,2.49.84l6.41,2.4Z"/><path class="cls-1" d="M.36,48.94V42.19a5.18,5.18,0,0,1,1.49-4A4.59,4.59,0,0,1,5.16,37c3.17,0,4.9,1.85,4.9,5.45v4.92h7.46v1.61Zm8.33-6.41c0-2.79-1.32-3.94-3.48-3.94s-3.43,1.32-3.43,3.79v4.95H8.69Z"/><path class="cls-1" d="M.36,34.87v-1.6H7.78V23.54H.36v-1.6H17.52v1.6H9.12v9.73h8.4v1.6Z"/><path class="cls-1" d="M.36,18.79v-1.6H17.52v1.6Z"/><path class="cls-1" d="M9,14.69C3.77,14.69,0,11.74,0,6.89c0-3.63,2-6,5.21-6.6V1.87a4.76,4.76,0,0,0-3.82,5c0,4,3.34,6.1,7.56,6.1s7.47-2.14,7.47-6.07c0-3.32-2.31-5.12-5.14-5.38V0a7.42,7.42,0,0,1,4.49,1.78A6.73,6.73,0,0,1,17.83,7C17.83,11.74,14.21,14.69,9,14.69Z"/></g></g></svg>