<svg xmlns="http://www.w3.org/2000/svg" viewBox="0 0 624.25 432.43"><defs><style>.cls-1{fill:none;}</style></defs><title>img_1</title><g id="Camada_2" data-name="Camada 2"><g id="Camada_1-2" data-name="Camada 1"><path d="M0,28.94A50,50,0,0,1,9.46,0h3.73A56.09,56.09,0,0,0,4.91,28.94a59.67,59.67,0,0,0,8.28,31.3H9.46A55.54,55.54,0,0,1,0,28.94Z"/><path d="M14.37,2.69H19V52.08H14.37Z"/><path d="M23.28,2.69h6.29L46.63,45.8h.14L63.42,2.69h6.49V52.08H65.42v-43h-.14S64,13,62.93,15.75L48.63,52.08H44.56L30.12,15.75c-1-2.56-2.42-6.7-2.42-6.7h-.13v43H23.28Z"/><path d="M72,27.42C72,12.85,80.35,1.73,95.34,1.73,105.49,1.73,113,7,114.82,17h-4.77C108.53,9.6,102.87,5.73,95.34,5.73c-12.71,0-18.52,9.74-18.52,21.69C76.82,39.58,83,49,94.71,49,106.11,49,111,41.1,111,32.54V30.81H95.13V26.73h20.45V52.08h-3.25l-1-7.87h-.21c-2.55,4-7.39,8.84-16.5,8.84C80.21,53.05,72,42.21,72,27.42Z"/><path d="M124.22,30.33A57.3,57.3,0,0,0,115.93,0h3.73a52.92,52.92,0,0,1,9.53,30.33,51.92,51.92,0,0,1-9.53,29.91h-3.73A57.83,57.83,0,0,0,124.22,30.33Z"/><rect class="cls-1" width="624.25" height="432.43"/></g></g></svg>