<svg xmlns="http://www.w3.org/2000/svg" viewBox="0 0 104.79 27.51"><defs><style>.cls-1{fill:#fff;}</style></defs><title>serraho</title><g id="Camada_2" data-name="Camada 2"><g id="Camada_1-2" data-name="Camada 1"><path class="cls-1" d="M0,18.42H2.48c.26,4.49,3.3,7,8.27,7,3.89,0,6.78-2,6.78-5.56s-2.48-4.63-8.15-5.78C4.49,13.12,1,11.64,1,7,1,2.78,4.6,0,9.9,0c5.89,0,8.86,3.19,9.34,7.75H16.83C16.39,4,13.72,2.08,9.93,2.08c-4,0-6.48,1.92-6.48,4.85,0,3.15,2.44,4.12,7.19,5,5.15,1,9.41,2.26,9.41,7.82,0,4.71-3.78,7.75-9.34,7.75C3.74,27.51.3,23.58,0,18.42Z"/><path class="cls-1" d="M21.13.52h18V2.71H23.61v9.52H37.85v2.15H23.61V24.73H39.55V27H21.13Z"/><path class="cls-1" d="M40.7.52H52.53c4.78,0,7.52,2.74,7.52,7.15,0,3.27-1.41,5.42-4.45,6.38v.11c2.75.93,3.63,2.93,3.82,7,.19,4.27.67,5.34,1.15,5.68V27H57.9c-.59-.4-.74-1.4-1-5.93s-1.82-5.89-5.68-5.89H43.18V27H40.7Zm11,12.57c3.86,0,5.82-1.89,5.82-5.19S56,2.71,52,2.71H43.18V13.09Z"/><path class="cls-1" d="M61.49.52H73.32c4.78,0,7.53,2.74,7.53,7.15,0,3.27-1.41,5.42-4.45,6.38v.11c2.74.93,3.63,2.93,3.81,7,.19,4.27.67,5.34,1.15,5.68V27H78.7c-.6-.4-.75-1.4-1-5.93s-1.82-5.89-5.67-5.89H64V27H61.49Zm11,12.57c3.85,0,5.82-1.89,5.82-5.19S76.8,2.71,72.8,2.71H64V13.09Z"/><path class="cls-1" d="M91.89.52h2.82L104.79,27h-2.67L99,18.68H87.52L84.4,27H81.88ZM98.3,16.64,94.67,6.75c-.56-1.49-1.33-3.86-1.33-3.86h-.08s-.7,2.26-1.3,3.86l-3.7,9.89Z"/></g></g></svg>